# Blender 4.3.2
# www.blender.org
mtllib 01.mtl
o Plane
v -168.261780 0.000000 44.938877
v 44.938877 0.000000 44.938877
v -168.261780 0.000000 -44.938877
v 44.938877 0.000000 -44.938877
v 11.877057 4.130033 -20.000002
v 11.877057 0.000000 -20.000002
v 11.877057 4.130033 -19.467558
v 11.877057 0.000000 -19.467558
v -11.877057 4.130033 -20.000002
v -11.877057 0.000000 -20.000002
v -11.877057 4.130033 -19.467558
v -11.877057 0.000000 -19.467558
v 11.877057 4.130033 18.000002
v 11.877057 0.000000 18.000002
v 11.877057 4.130033 18.532446
v 11.877057 0.000000 18.532446
v -11.877057 4.130033 18.000002
v -11.877057 0.000000 18.000002
v -11.877057 4.130033 18.532446
v -11.877057 0.000000 18.532446
v -55.609673 -0.060712 25.588022
v -54.383549 26.132963 24.361898
v -55.609673 -0.060712 20.452179
v -54.383549 26.132963 21.678303
v -50.473835 -0.060712 25.588022
v -51.699951 26.132963 24.361898
v -50.473835 -0.060712 20.452179
v -51.699951 26.132963 21.678303
v -53.286232 28.132965 23.264582
v -53.286232 28.132965 22.775620
v -52.797264 28.132965 22.775620
v -52.797264 28.132965 23.264582
v -55.609673 -0.060712 -20.452148
v -54.383549 26.132963 -21.678270
v -55.609673 -0.060712 -25.587992
v -54.383549 26.132963 -24.361866
v -50.473835 -0.060712 -20.452148
v -51.699951 26.132963 -21.678270
v -50.473835 -0.060712 -25.587992
v -51.699951 26.132963 -24.361866
v -53.286232 28.132965 -22.775587
v -53.286232 28.132965 -23.264549
v -52.797264 28.132965 -23.264549
v -52.797264 28.132965 -22.775587
vn -0.0000 1.0000 -0.0000
vn -0.0000 -0.0000 1.0000
vn -1.0000 -0.0000 -0.0000
vn 1.0000 -0.0000 -0.0000
vn -0.0000 -0.0000 -1.0000
vn -0.9989 0.0468 -0.0000
vn -0.0000 0.0468 -0.9989
vn 0.9989 0.0468 -0.0000
vn -0.0000 0.0468 0.9989
vn 0.8767 0.4810 -0.0000
vn -0.8767 0.4810 -0.0000
vn -0.0000 0.4810 0.8767
vn -0.0000 0.4810 -0.8767
vt 0.000000 0.000000
vt 1.000000 0.000000
vt 1.000000 1.000000
vt 0.000000 1.000000
vt 0.625000 0.500000
vt 0.875000 0.500000
vt 0.875000 0.750000
vt 0.625000 0.750000
vt 0.375000 0.750000
vt 0.625000 1.000000
vt 0.375000 1.000000
vt 0.375000 0.000000
vt 0.625000 0.000000
vt 0.625000 0.250000
vt 0.375000 0.250000
vt 0.375000 0.500000
s 0
usemtl 
f 1/1/1 2/2/1 4/3/1 3/4/1
f 5/5/1 9/6/1 11/7/1 7/8/1
f 8/9/2 7/8/2 11/10/2 12/11/2
f 12/12/3 11/13/3 9/14/3 10/15/3
f 6/16/4 5/5/4 7/8/4 8/9/4
f 10/15/5 9/14/5 5/5/5 6/16/5
f 13/5/1 17/6/1 19/7/1 15/8/1
f 16/9/2 15/8/2 19/10/2 20/11/2
f 20/12/3 19/13/3 17/14/3 18/15/3
f 14/16/4 13/5/4 15/8/4 16/9/4
f 18/15/5 17/14/5 13/5/5 14/16/5
f 21/12/6 22/13/6 24/14/6 23/15/6
f 23/15/7 24/14/7 28/5/7 27/16/7
f 27/16/8 28/5/8 26/8/8 25/9/8
f 25/9/9 26/8/9 22/10/9 21/11/9
f 31/5/1 30/6/1 29/7/1 32/8/1
f 26/8/10 28/5/10 31/5/10 32/8/10
f 24/14/11 22/13/11 29/13/11 30/14/11
f 22/10/12 26/8/12 32/8/12 29/10/12
f 28/5/13 24/14/13 30/14/13 31/5/13
f 33/12/6 34/13/6 36/14/6 35/15/6
f 35/15/7 36/14/7 40/5/7 39/16/7
f 39/16/8 40/5/8 38/8/8 37/9/8
f 37/9/9 38/8/9 34/10/9 33/11/9
f 43/5/1 42/6/1 41/7/1 44/8/1
f 38/8/10 40/5/10 43/5/10 44/8/10
f 36/14/11 34/13/11 41/13/11 42/14/11
f 34/10/12 38/8/12 44/8/12 41/10/12
f 40/5/13 36/14/13 42/14/13 43/5/13
